<svg width="563" height="127" viewBox="0 0 563 127" fill="none" xmlns="http://www.w3.org/2000/svg">
<path d="M545.167 23.2267C534.557 22.4967 523.947 21.9267 513.337 20.9367C507.877 20.4167 505.687 21.7667 505.117 27.8567C502.617 53.9667 502.617 79.9767 507.147 105.777C508.547 113.627 505.637 114.827 498.667 114.617C482.907 114.197 482.697 114.517 484.887 99.0667C488.217 75.4467 487.437 51.8367 485.667 28.2167C485.357 24.1067 485.247 19.5267 478.797 21.0367C455.907 26.4467 433.017 20.8767 410.137 20.7267C402.077 20.6767 400.307 23.5367 400.097 30.6067C399.577 47.3067 398.487 64.0567 397.647 80.7567C397.807 82.0567 398.007 83.3567 398.167 84.6567C401.757 92.8767 400.717 101.877 402.437 110.357C402.907 112.857 401.657 113.787 399.157 114.467C382.767 118.937 377.827 114.417 380.227 97.6667C383.507 74.4667 382.617 51.1667 380.907 27.8567C380.487 21.9767 377.997 20.3667 372.427 20.9367C359.167 22.3367 345.737 23.0667 332.477 24.7367C326.287 25.5667 323.997 24.4767 323.897 17.6667C323.587 1.07672 323.277 0.606718 339.707 2.21672C379.137 6.01672 418.567 3.30672 457.997 2.47672C474.387 2.11672 490.767 3.87672 507.207 4.34672C523.337 4.76672 539.457 3.72672 555.377 0.756718C560.687 -0.233282 561.727 1.69672 561.927 6.52672C562.757 24.5267 562.917 24.5267 545.177 23.2267H545.167Z" fill="#3C0862"/>
<path d="M313.227 102.967C313.697 105.257 314.737 108.067 311.877 109.417C307.457 111.497 302.517 112.067 297.837 111.137C294.247 110.457 295.337 106.817 295.447 104.217C296.067 90.1769 296.747 76.1269 297.427 62.0869C297.427 60.7869 297.477 59.4369 297.477 58.1369V53.8669C297.117 49.5469 296.797 45.2269 296.277 38.5169C291.487 48.1969 284.887 54.1269 285.767 64.5269C286.287 70.1969 279.107 73.6869 274.377 76.0269C270.687 77.8469 270.167 71.8169 268.347 69.2669C265.537 65.4169 263.357 61.0969 260.907 56.9869C260.287 56.1069 260.077 54.1769 258.517 55.2669C258.047 55.5769 258.727 57.5569 258.827 58.8069C260.437 78.5769 261.847 98.3969 263.817 118.107C264.497 125.077 263.197 127.107 255.757 125.177C239.527 120.967 239.007 121.277 241.247 103.957C245.407 72.4369 242.337 41.7969 231.157 12.0369C229.337 7.1969 229.907 5.2269 235.737 3.8669C252.487 -0.193104 252.277 -0.603105 255.557 16.4069C257.947 28.7369 264.507 39.1869 271.737 50.1669C282.657 38.4669 291.187 25.5669 295.457 10.4769C298.367 -0.0331049 305.287 4.8569 310.857 5.1669C318.447 5.5869 314.137 10.7369 313.717 14.2169C312.107 28.1569 310.437 42.0969 308.827 56.0369C309.087 71.7969 309.867 87.5069 313.247 102.957L313.227 102.967Z" fill="#3C0862"/>
<path d="M224.918 53.2667C224.628 70.0367 224.738 86.7867 218.408 102.837C214.088 113.797 191.398 119.647 184.048 110.547C178.208 103.317 172.638 95.6067 172.808 84.8167C173.048 70.1167 171.388 55.3767 170.508 40.6667C170.048 33.0767 170.428 25.5867 173.238 18.4167C178.128 5.99668 189.528 -1.38332 201.208 0.216679C213.098 1.84668 224.208 13.8667 224.838 26.5167C225.278 35.4167 224.928 44.3567 224.928 53.2767L224.918 53.2667ZM190.058 56.2167C189.498 66.7867 188.998 77.3367 191.348 87.8467C192.258 91.9167 193.718 93.9667 197.598 94.3167C201.448 94.6667 203.908 93.0467 205.288 89.1967C206.658 85.3567 208.528 81.8567 208.128 77.4767C206.748 62.1767 205.688 46.8567 204.478 31.5467C204.148 27.3767 203.928 22.9467 198.148 22.8267C192.248 22.6967 190.468 27.1367 190.198 31.6467C189.718 39.8167 190.058 48.0267 190.058 56.2267V56.2167Z" fill="#3C0862"/>
<path d="M153.317 105.887C142.757 109.117 137.347 107.027 134.227 95.7467C130.687 83.0567 125.127 70.8867 120.187 57.7167C114.467 62.6567 112.797 67.5967 113.167 74.3067C114.047 89.0267 114.937 103.747 117.377 118.267C118.467 124.617 116.597 127.367 110.047 126.377C109.367 126.277 108.647 126.327 107.967 126.327C93.2974 126.427 93.8174 126.427 94.3874 111.497C95.6874 77.6867 98.3374 43.7167 88.7674 10.5267C86.8474 3.86668 89.3374 1.94668 95.7874 1.10668C112.067 -0.923325 111.967 -1.23332 111.657 14.8367C111.497 23.3167 111.607 31.8467 111.607 41.8867C125.967 28.9367 130.127 3.96668 156.917 11.5067C150.727 18.2667 144.797 25.0867 138.557 31.6367C132.107 38.4467 130.237 45.4167 133.827 54.8367C139.597 70.0767 147.977 83.6567 157.077 96.9167C161.237 102.947 159.677 103.887 153.327 105.867L153.317 105.887Z" fill="#3C0862"/>
<path d="M419.838 50.1568C419.678 47.7868 419.538 46.7568 419.548 45.7368C419.578 41.5468 416.498 35.8468 420.988 33.5968C426.318 30.9368 432.818 30.4168 438.898 29.5368C442.008 29.0868 441.198 32.1468 441.308 33.9568C442.908 62.4368 447.538 90.3568 456.898 117.367C458.168 121.027 457.058 122.077 453.898 123.217C441.398 127.727 439.548 126.677 439.098 113.597C438.858 106.507 439.488 99.9068 428.458 101.257C421.748 102.077 421.538 106.437 421.328 110.357C420.948 117.467 417.538 116.547 412.618 115.297C407.158 113.907 406.588 111.497 408.918 106.787C417.988 88.5168 419.368 68.7468 419.838 50.1668V50.1568ZM429.888 62.1068C427.998 72.6368 426.518 81.2768 424.878 89.8868C423.848 95.2468 427.178 95.1568 430.838 95.1068C434.348 95.0568 437.988 95.5068 436.638 89.9568C434.578 81.4868 434.378 72.5768 429.888 62.0968V62.1068Z" fill="#3C0862"/>
<path d="M363.168 52.7666C362.858 71.4266 365.518 89.5866 373.568 106.587C375.878 111.467 375.338 113.527 369.958 115.277C364.248 117.137 361.028 115.917 361.118 109.977C361.268 101.187 355.668 101.407 349.548 101.407C341.728 101.407 345.148 107.447 344.118 111.057C343.748 112.347 343.928 113.777 343.788 115.137C342.778 124.607 335.018 127.787 326.858 122.467C323.668 120.387 325.348 118.307 325.978 116.327C334.308 90.5066 339.258 64.0766 341.068 36.9966C341.248 34.3566 339.368 27.4766 346.088 29.9666C351.958 32.1466 361.548 28.0166 363.048 38.3866C363.728 43.0766 363.168 47.9566 363.168 52.7466V52.7666ZM352.768 63.9066C352.128 64.0466 351.488 64.1866 350.858 64.3266C349.358 72.9766 348.038 81.6666 346.318 90.2766C345.118 96.2966 349.228 95.0666 352.368 95.0366C355.218 95.0166 358.958 95.9966 357.838 90.5866C355.988 81.7266 354.448 72.7966 352.778 63.8966L352.768 63.9066Z" fill="#3C0862"/>
<path d="M547.648 124.637C543.858 125.947 542.718 124.057 542.668 120.627C542.618 117.197 542.638 113.737 542.238 110.337C541.808 106.737 544.078 101.267 537.108 101.487C531.968 101.647 525.738 99.5967 525.318 108.557C525.118 112.847 524.778 118.267 516.898 115.577C509.668 113.107 511.428 109.417 513.468 104.717C521.968 85.1067 524.688 64.3767 523.158 43.3467C522.528 34.6167 525.208 32.3267 533.078 30.9667C541.278 29.5567 545.018 29.4367 545.428 39.9567C546.358 63.9667 551.658 87.4367 558.058 110.597C561.098 121.587 559.228 124.117 547.648 124.647V124.637ZM533.138 65.2067C531.578 73.0367 529.928 80.8567 528.518 88.7167C528.008 91.5867 526.928 95.4567 532.068 95.0067C535.378 94.7167 540.548 97.6067 540.388 90.1267C540.198 81.3567 536.118 73.6367 533.128 65.1967L533.138 65.2067Z" fill="#3C0862"/>
<path d="M78.5175 19.6367C78.4675 24.9467 74.8774 22.9667 72.0675 22.3967C69.9874 21.9267 67.9575 21.4567 65.8774 20.9967C54.4308 21.03 48.0341 26.8034 46.6875 38.3167C44.1375 59.6467 45.9575 80.8167 48.7675 101.887C50.4275 114.687 50.8475 114.627 38.4175 114.577C36.0275 114.577 33.5774 114.367 31.2375 114.527C26.0875 114.887 24.9475 113.127 25.8775 107.867C30.2975 83.0567 29.7775 58.0367 28.3775 32.9567C27.6475 19.8467 26.5075 19.3267 13.8675 21.3067C9.75745 21.9867 3.61745 25.7767 1.95745 21.2567C-0.132548 15.5267 1.11745 8.3967 1.63745 2.0067C1.84745 -0.593305 5.06745 0.186695 6.83745 0.646695C23.5875 5.3767 40.6475 4.1867 57.7075 3.6667C59.0075 3.4067 60.3575 3.1467 61.7175 2.9367C62.3375 2.7767 63.0675 2.3167 63.6375 2.4667C68.5775 3.5567 75.1375 -2.4733 77.5275 1.7867C80.1274 6.4667 78.5675 13.5467 78.5175 19.6267V19.6367Z" fill="#3C0862"/>
<path d="M68.2675 29.0466C76.6375 26.3266 79.2375 29.2466 78.1675 37.7866C75.3175 60.6066 75.9275 83.5666 76.2075 106.517C76.2375 108.977 77.8875 113.167 74.5075 113.687C68.8675 114.547 62.6875 114.997 57.3975 112.327C54.0275 110.627 57.1575 107.327 57.7075 104.997C62.8275 83.3966 64.3475 61.6566 59.5775 39.8966C57.7575 31.5766 58.0875 26.7366 68.2675 29.0466Z" fill="#3C0862"/>
</svg>
