<svg width="121" height="120" viewBox="0 0 121 120" fill="none" xmlns="http://www.w3.org/2000/svg">
<circle cx="60.25" cy="60" r="60" fill="#F1DEFF"/>
<ellipse cx="61.8236" cy="60" rx="27.9916" ry="25.1683" fill="white"/>
<path d="M60.25 20C70.8587 20 81.0328 24.2143 88.5343 31.7157C96.0357 39.2172 100.25 49.3913 100.25 60C100.25 70.6087 96.0357 80.7828 88.5343 88.2843C81.0328 95.7857 70.8587 100 60.25 100C49.6413 100 39.4672 95.7857 31.9657 88.2843C24.4643 80.7828 20.25 70.6087 20.25 60C20.25 49.3913 24.4643 39.2172 31.9657 31.7157C39.4672 24.2143 49.6413 20 60.25 20ZM55.2671 67.8914L46.3814 59C46.0629 58.6814 45.6847 58.4288 45.2685 58.2564C44.8523 58.084 44.4062 57.9952 43.9557 57.9952C43.5052 57.9952 43.0591 58.084 42.6429 58.2564C42.2267 58.4288 41.8485 58.6814 41.53 59C40.8867 59.6433 40.5252 60.5159 40.5252 61.4257C40.5252 62.3355 40.8867 63.2081 41.53 63.8514L52.8443 75.1657C53.1619 75.4859 53.5398 75.74 53.9561 75.9134C54.3725 76.0868 54.819 76.176 55.27 76.176C55.721 76.176 56.1675 76.0868 56.5839 75.9134C57.0002 75.74 57.3781 75.4859 57.6957 75.1657L81.1243 51.7314C81.4471 51.4142 81.7039 51.0362 81.8799 50.6192C82.0559 50.2023 82.1476 49.7546 82.1497 49.302C82.1518 48.8494 82.0643 48.4009 81.8921 47.9823C81.72 47.5637 81.4668 47.1833 81.1469 46.8631C80.8271 46.5429 80.447 46.2892 80.0286 46.1166C79.6102 45.944 79.1618 45.8559 78.7092 45.8575C78.2566 45.8591 77.8088 45.9502 77.3917 46.1257C76.9745 46.3012 76.5962 46.5576 76.2786 46.88L55.2671 67.8914Z" fill="#3C0862"/>
</svg>
