<svg width="120" height="120" viewBox="0 0 120 120" fill="none" xmlns="http://www.w3.org/2000/svg">
<circle cx="60" cy="60" r="60" fill="#325C5C"/>
<ellipse cx="61.5736" cy="59.9999" rx="27.9916" ry="25.1683" fill="#325C5C"/>
<path d="M60 20C70.6087 20 80.7828 24.2143 88.2843 31.7157C95.7857 39.2172 100 49.3913 100 60C100 70.6087 95.7857 80.7828 88.2843 88.2843C80.7828 95.7857 70.6087 100 60 100C49.3913 100 39.2172 95.7857 31.7157 88.2843C24.2143 80.7828 20 70.6087 20 60C20 49.3913 24.2143 39.2172 31.7157 31.7157C39.2172 24.2143 49.3913 20 60 20ZM55.0171 67.8914L46.1314 59C45.8129 58.6814 45.4347 58.4288 45.0185 58.2564C44.6023 58.084 44.1562 57.9952 43.7057 57.9952C43.2552 57.9952 42.8091 58.084 42.3929 58.2564C41.9767 58.4288 41.5986 58.6814 41.28 59C40.6367 59.6433 40.2752 60.5159 40.2752 61.4257C40.2752 62.3355 40.6367 63.2081 41.28 63.8514L52.5943 75.1657C52.9119 75.4859 53.2898 75.74 53.7061 75.9134C54.1225 76.0868 54.569 76.176 55.02 76.176C55.471 76.176 55.9175 76.0868 56.3339 75.9134C56.7502 75.74 57.1281 75.4859 57.4457 75.1657L80.8743 51.7314C81.1971 51.4142 81.4539 51.0362 81.6299 50.6192C81.8059 50.2023 81.8976 49.7546 81.8997 49.302C81.9018 48.8494 81.8143 48.4009 81.6421 47.9823C81.47 47.5637 81.2168 47.1833 80.8969 46.8631C80.5771 46.5429 80.197 46.2892 79.7786 46.1166C79.3602 45.944 78.9118 45.8559 78.4592 45.8575C78.0066 45.8591 77.5588 45.9502 77.1417 46.1257C76.7245 46.3012 76.3462 46.5576 76.0286 46.88L55.0171 67.8914Z" fill="#01FFFF"/>
</svg>
