<svg width="332" height="269" viewBox="0 0 332 269" fill="none" xmlns="http://www.w3.org/2000/svg">
<path d="M277.977 53.333C277.687 70.103 277.797 86.853 271.467 102.903C267.147 113.863 244.457 119.713 237.107 110.613C231.267 103.383 225.697 95.673 225.867 84.883C226.107 70.183 224.447 55.4431 223.567 40.7331C223.107 33.1431 223.487 25.6531 226.297 18.4831C231.167 6.07305 242.567 -1.30695 254.257 0.283054C266.147 1.91305 277.257 13.933 277.887 26.583C278.337 35.473 277.977 44.413 277.977 53.333ZM243.117 56.2831C242.557 66.8531 242.057 77.403 244.407 87.913C245.317 91.983 246.777 94.033 250.657 94.383C254.507 94.733 256.967 93.113 258.347 89.263C259.717 85.423 261.587 81.923 261.187 77.543C259.807 62.243 258.747 46.923 257.537 31.613C257.207 27.443 256.987 23.0131 251.207 22.8931C245.307 22.7631 243.527 27.203 243.257 31.713C242.767 39.873 243.117 48.0931 243.117 56.2831Z" fill="#fafbfc"/>
<path d="M206.377 105.943C195.817 109.173 190.407 107.083 187.287 95.8028C183.747 83.1128 178.187 70.9428 173.247 57.7728C167.527 62.7128 165.857 67.6528 166.227 74.3628C167.107 89.0828 167.997 103.803 170.437 118.323C171.527 124.673 169.657 127.423 163.107 126.433C162.427 126.333 161.707 126.383 161.027 126.383C146.357 126.483 146.877 126.483 147.447 111.553C148.747 77.7428 151.397 43.7728 141.827 10.5828C139.907 3.92282 142.397 2.00283 148.847 1.16283C165.127 -0.867174 165.027 -1.17716 164.717 14.8928C164.557 23.3728 164.667 31.9028 164.667 41.9428C179.027 28.9928 183.187 4.02283 209.977 11.5628C203.787 18.3228 197.857 25.1428 191.617 31.6928C185.167 38.5028 183.297 45.4728 186.887 54.8928C192.657 70.1328 201.037 83.7128 210.137 96.9728C214.287 103.033 212.727 103.973 206.377 105.943Z" fill="#fafbfc"/>
<path d="M131.577 19.7029C131.527 25.0129 127.937 23.0329 125.127 22.4629C123.047 21.9929 121.017 21.5229 118.937 21.0629C101.767 21.1129 101.767 21.1129 99.7468 38.3829C97.1968 59.7129 99.0168 80.8829 101.827 101.953C103.487 114.753 103.907 114.693 91.4768 114.643C89.0868 114.643 86.6368 114.433 84.2968 114.593C79.1468 114.953 78.0068 113.193 78.9368 107.933C83.3568 83.1229 82.8368 58.1029 81.4368 33.0229C80.7068 19.9129 79.5668 19.3929 66.9268 21.3729C62.8168 22.0529 56.6768 25.8429 55.0168 21.3229C52.9368 15.6029 54.1868 8.47291 54.7068 2.07291C54.9168 -0.527093 58.1368 0.252901 59.9068 0.722901C76.6568 5.4529 93.7168 4.26291 110.777 3.74291C112.077 3.48291 113.427 3.22291 114.787 3.01291C115.407 2.85291 116.137 2.39291 116.707 2.54291C121.647 3.63291 128.207 -2.3971 130.597 1.8629C133.187 6.5429 131.627 13.6129 131.577 19.7029Z" fill="#fafbfc"/>
<path d="M121.327 29.1033C129.697 26.3833 132.297 29.3033 131.227 37.8433C128.377 60.6633 128.987 83.6232 129.267 106.573C129.297 109.033 130.947 113.223 127.567 113.743C121.927 114.603 115.747 115.053 110.457 112.383C107.087 110.683 110.217 107.383 110.767 105.053C115.887 83.4533 117.407 61.7133 112.637 39.9533C110.817 31.6333 111.157 26.7933 121.327 29.1033Z" fill="#fafbfc"/>
<path d="M314.929 165.352C304.319 164.622 293.709 164.052 283.099 163.062C277.639 162.542 275.449 163.892 274.879 169.982C272.379 196.092 272.379 222.102 276.909 247.902C278.309 255.752 275.399 256.952 268.429 256.742C252.669 256.322 252.459 256.642 254.649 241.192C257.979 217.572 257.199 193.962 255.429 170.342C255.119 166.232 255.009 161.652 248.559 163.162C225.669 168.572 202.779 163.002 179.899 162.852C171.839 162.802 170.069 165.662 169.859 172.732C169.339 189.432 168.249 206.182 167.409 222.882C167.569 224.182 167.769 225.482 167.929 226.782C171.519 235.002 170.479 244.002 172.199 252.482C172.669 254.982 171.419 255.912 168.919 256.592C152.529 261.062 147.589 256.542 149.989 239.792C153.269 216.592 152.379 193.292 150.669 169.982C150.249 164.102 147.759 162.492 142.189 163.062C128.929 164.462 115.499 165.192 102.239 166.862C96.0491 167.692 93.7591 166.602 93.6591 159.792C93.3491 143.202 93.0391 142.732 109.469 144.342C148.899 148.142 188.329 145.432 227.759 144.602C244.149 144.242 260.529 146.002 276.969 146.472C293.099 146.892 309.219 145.852 325.139 142.882C330.449 141.892 331.489 143.822 331.689 148.652C332.519 166.652 332.669 166.652 314.929 165.352Z" fill="#fafbfc"/>
<path d="M82.9889 245.102C83.4589 247.392 84.4989 250.202 81.6389 251.552C77.2189 253.632 72.279 254.202 67.599 253.272C64.009 252.592 65.0989 248.952 65.2089 246.352C65.8289 232.312 66.509 218.262 67.189 204.222C67.189 202.922 67.2389 201.572 67.2389 200.272V196.002C66.8789 191.682 66.559 187.362 66.039 180.652C61.249 190.332 54.6489 196.262 55.5289 206.662C56.049 212.332 48.8689 215.822 44.1389 218.162C40.4489 219.982 39.9289 213.952 38.1089 211.402C35.2989 207.552 33.119 203.232 30.669 199.122C30.049 198.242 29.839 196.312 28.279 197.402C27.809 197.712 28.4889 199.692 28.5889 200.942C30.1989 220.712 31.6089 240.532 33.5789 260.242C34.2589 267.212 32.9589 269.242 25.5189 267.312C9.28894 263.102 8.76896 263.412 11.009 246.092C15.169 214.572 12.099 183.932 0.91895 154.172C-0.90105 149.332 -0.331048 147.362 5.49895 146.002C22.249 141.942 22.039 141.532 25.319 158.542C27.709 170.872 34.269 181.322 41.499 192.302C52.419 180.602 60.949 167.702 65.219 152.612C68.129 142.102 75.049 146.992 80.6189 147.302C88.209 147.722 83.899 152.872 83.479 156.352C81.869 170.292 80.199 184.232 78.589 198.172C78.819 213.942 79.5989 229.652 82.9889 245.102Z" fill="#fafbfc"/>
<path d="M189.599 192.292C189.439 189.922 189.299 188.892 189.309 187.872C189.339 183.682 186.259 177.982 190.749 175.732C196.079 173.072 202.579 172.552 208.659 171.672C211.769 171.222 210.959 174.282 211.069 176.092C212.669 204.572 217.299 232.492 226.659 259.502C227.929 263.162 226.819 264.212 223.659 265.352C211.159 269.862 209.309 268.812 208.859 255.732C208.619 248.642 209.249 242.042 198.219 243.392C191.509 244.212 191.299 248.572 191.089 252.492C190.709 259.602 187.299 258.682 182.379 257.432C176.919 256.042 176.349 253.632 178.679 248.922C187.749 230.642 189.129 210.872 189.599 192.292ZM199.649 204.232C197.759 214.762 196.279 223.402 194.639 232.012C193.609 237.372 196.939 237.282 200.599 237.232C204.109 237.182 207.749 237.632 206.399 232.082C204.339 223.622 204.129 214.712 199.649 204.232Z" fill="#fafbfc"/>
<path d="M132.929 194.892C132.619 213.552 135.279 231.712 143.329 248.712C145.639 253.592 145.099 255.652 139.719 257.402C134.009 259.262 130.789 258.042 130.879 252.102C131.029 243.312 125.429 243.532 119.309 243.532C111.489 243.522 114.909 249.572 113.879 253.182C113.509 254.472 113.689 255.902 113.549 257.262C112.539 266.732 104.779 269.912 96.6189 264.592C93.4289 262.512 95.1089 260.432 95.7389 258.452C104.069 232.632 109.019 206.202 110.829 179.122C111.009 176.482 109.129 169.602 115.849 172.092C121.719 174.272 131.309 170.142 132.809 180.512C133.489 185.222 132.929 190.102 132.929 194.892ZM122.519 206.032C121.879 206.172 121.239 206.312 120.609 206.452C119.109 215.102 117.789 223.792 116.069 232.402C114.869 238.422 118.979 237.192 122.119 237.162C124.969 237.142 128.709 238.122 127.589 232.712C125.729 223.862 124.189 214.932 122.519 206.032Z" fill="#fafbfc"/>
<path d="M317.409 266.762C313.619 268.072 312.479 266.182 312.429 262.752C312.379 259.322 312.399 255.862 311.999 252.462C311.569 248.862 313.839 243.392 306.869 243.612C301.729 243.772 295.499 241.722 295.079 250.682C294.879 254.972 294.539 260.392 286.659 257.702C279.429 255.232 281.189 251.542 283.229 246.842C291.729 227.232 294.449 206.502 292.919 185.472C292.289 176.742 294.969 174.452 302.839 173.092C311.039 171.682 314.779 171.562 315.189 182.082C316.119 206.092 321.419 229.562 327.819 252.722C330.859 263.712 328.989 266.242 317.409 266.762ZM302.899 207.332C301.339 215.162 299.689 222.982 298.279 230.842C297.769 233.712 296.689 237.582 301.829 237.132C305.139 236.842 310.309 239.732 310.149 232.252C309.969 223.492 305.879 215.772 302.899 207.332Z" fill="#fafbfc"/>
</svg>
