<svg width="12" height="16" viewBox="0 0 12 16" fill="none" xmlns="http://www.w3.org/2000/svg">
<path id="Vector" d="M6 14.1726C7.6625 12.6213 8.89063 11.2142 9.68438 9.95142C10.4781 8.6886 10.875 7.57642 10.875 6.61488C10.875 5.10475 10.4044 3.86825 9.46328 2.90536C8.52214 1.94248 7.36771 1.46104 6 1.46104C4.63229 1.46104 3.47786 1.94248 2.53673 2.90536C1.59557 3.86825 1.125 5.10475 1.125 6.61488C1.125 7.57642 1.53125 8.6886 2.34375 9.95142C3.15625 11.2142 4.375 12.6213 6 14.1726ZM5.99531 15.3072C5.86094 15.3072 5.72813 15.2848 5.59688 15.2399C5.46563 15.195 5.35 15.1213 5.25 15.0187C4.725 14.5315 4.15625 13.9707 3.54375 13.336C2.93125 12.7014 2.3625 12.0187 1.8375 11.288C1.3125 10.5572 0.875 9.79437 0.525 8.9995C0.175 8.20463 0 7.40975 0 6.61488C0 4.69181 0.603125 3.15975 1.80938 2.01873C3.01562 0.877703 4.4125 0.30719 6 0.30719C7.5875 0.30719 8.98438 0.877703 10.1906 2.01873C11.3969 3.15975 12 4.69181 12 6.61488C12 7.40975 11.825 8.20463 11.475 8.9995C11.125 9.79437 10.6875 10.5572 10.1625 11.288C9.6375 12.0187 9.06875 12.7014 8.45625 13.336C7.84375 13.9707 7.275 14.5315 6.75 15.0187C6.65 15.1213 6.53281 15.195 6.39844 15.2399C6.26406 15.2848 6.12969 15.3072 5.99531 15.3072ZM6.00167 7.80719C6.36306 7.80719 6.67188 7.67521 6.92813 7.41125C7.18438 7.1473 7.3125 6.82999 7.3125 6.45932C7.3125 6.08867 7.18382 5.77193 6.92646 5.50911C6.66911 5.24629 6.35973 5.11488 5.99833 5.11488C5.63694 5.11488 5.32812 5.24686 5.07188 5.51082C4.81563 5.77477 4.6875 6.09208 4.6875 6.46275C4.6875 6.8334 4.81618 7.15014 5.07354 7.41296C5.33089 7.67578 5.64027 7.80719 6.00167 7.80719Z" fill="#555455"/>
</svg>
