<svg width="12" height="13" viewBox="0 0 12 13" fill="none" xmlns="http://www.w3.org/2000/svg">
<path id="Vector" d="M6.495 6.12719V3.56219C6.495 3.43219 6.4525 3.32469 6.3675 3.23969C6.2825 3.15469 6.175 3.11219 6.045 3.11219C5.915 3.11219 5.8075 3.15469 5.7225 3.23969C5.6375 3.32469 5.595 3.43219 5.595 3.56219V6.30719C5.595 6.36719 5.605 6.42219 5.625 6.47219C5.645 6.52219 5.675 6.57219 5.715 6.62219L7.875 8.85719C7.965 8.95719 8.0775 9.00469 8.2125 8.99969C8.3475 8.99469 8.46 8.94719 8.55 8.85719C8.64 8.76719 8.685 8.65719 8.685 8.52719C8.685 8.39719 8.64 8.28719 8.55 8.19719L6.495 6.12719ZM6 12.3072C5.18 12.3072 4.405 12.1497 3.675 11.8347C2.945 11.5197 2.3075 11.0897 1.7625 10.5447C1.2175 9.99969 0.7875 9.36219 0.4725 8.63219C0.1575 7.90219 0 7.12719 0 6.30719C0 5.48719 0.1575 4.71219 0.4725 3.98219C0.7875 3.25219 1.2175 2.61469 1.7625 2.06969C2.3075 1.52469 2.945 1.09469 3.675 0.77969C4.405 0.46469 5.18 0.30719 6 0.30719C6.82 0.30719 7.595 0.46469 8.325 0.77969C9.055 1.09469 9.6925 1.52469 10.2375 2.06969C10.7825 2.61469 11.2125 3.25219 11.5275 3.98219C11.8425 4.71219 12 5.48719 12 6.30719C12 7.12719 11.8425 7.90219 11.5275 8.63219C11.2125 9.36219 10.7825 9.99969 10.2375 10.5447C9.6925 11.0897 9.055 11.5197 8.325 11.8347C7.595 12.1497 6.82 12.3072 6 12.3072ZM6 11.4072C7.4 11.4072 8.6 10.9072 9.6 9.90719C10.6 8.90719 11.1 7.70719 11.1 6.30719C11.1 4.90719 10.6 3.70719 9.6 2.70719C8.6 1.70719 7.4 1.20719 6 1.20719C4.6 1.20719 3.4 1.70719 2.4 2.70719C1.4 3.70719 0.9 4.90719 0.9 6.30719C0.9 7.70719 1.4 8.90719 2.4 9.90719C3.4 10.9072 4.6 11.4072 6 11.4072Z" fill="#555455"/>
</svg>
